<svg width="152" height="124" viewBox="0 0 152 124" fill="none" xmlns="http://www.w3.org/2000/svg">
<path d="M22 32.5H130C138.837 32.5 146 39.6634 146 48.5V101.5C146 110.337 138.837 117.5 130 117.5H22C13.1634 117.5 6 110.337 6 101.5V48.5C6 39.6634 13.1634 32.5 22 32.5ZM47.5 52.5C44.1863 52.5 41.5 55.1863 41.5 58.5V90C41.5 93.3137 44.1863 96 47.5 96C50.8137 96 53.5 93.3137 53.5 90V58.5C53.5 55.1863 50.8137 52.5 47.5 52.5ZM106.5 52.5C103.186 52.5 100.5 55.1863 100.5 58.5V90C100.5 93.3137 103.186 96 106.5 96C109.814 96 112.5 93.3137 112.5 90V58.5C112.5 55.1863 109.814 52.5 106.5 52.5Z" stroke="white" stroke-width="12" stroke-linecap="round" stroke-linejoin="round"/>
<circle cx="76" cy="19" r="13" stroke="white" stroke-width="12"/>
</svg>
